<mxfile host="65bd71144e">
    <diagram id="WBKYRDjI3wCepeFSlG4h" name="Page-1">
        <mxGraphModel dx="941" dy="1219" grid="1" gridSize="10" guides="1" tooltips="1" connect="1" arrows="1" fold="1" page="1" pageScale="1" pageWidth="827" pageHeight="1169" background="#ffffff" math="0" shadow="0">
            <root>
                <mxCell id="0"/>
                <mxCell id="1" parent="0"/>
                <mxCell id="68" style="edgeStyle=none;html=1;exitX=0.5;exitY=1;exitDx=0;exitDy=0;fontFamily=Verdana;fontSize=26;fontColor=none;strokeColor=#000000;strokeWidth=3;" parent="1" source="2" target="16" edge="1">
                    <mxGeometry relative="1" as="geometry">
                        <mxPoint x="180" y="260" as="targetPoint"/>
                    </mxGeometry>
                </mxCell>
                <mxCell id="80" style="edgeStyle=none;html=1;exitX=0.5;exitY=1;exitDx=0;exitDy=0;entryX=0.5;entryY=0;entryDx=0;entryDy=0;fontFamily=Verdana;fontSize=26;fontColor=none;strokeColor=#000000;strokeWidth=3;" parent="1" source="4" target="33" edge="1">
                    <mxGeometry relative="1" as="geometry"/>
                </mxCell>
                <mxCell id="81" style="edgeStyle=none;html=1;exitX=0.5;exitY=1;exitDx=0;exitDy=0;entryX=0.25;entryY=0;entryDx=0;entryDy=0;fontFamily=Verdana;fontSize=26;fontColor=none;strokeColor=#000000;strokeWidth=3;" parent="1" source="8" target="33" edge="1">
                    <mxGeometry relative="1" as="geometry"/>
                </mxCell>
                <mxCell id="69" style="edgeStyle=none;html=1;exitX=0.5;exitY=1;exitDx=0;exitDy=0;entryX=0.75;entryY=0;entryDx=0;entryDy=0;fontFamily=Verdana;fontSize=26;fontColor=none;strokeColor=#000000;strokeWidth=3;" parent="1" source="10" target="16" edge="1">
                    <mxGeometry relative="1" as="geometry"/>
                </mxCell>
                <mxCell id="77" style="edgeStyle=none;html=1;exitX=0.5;exitY=1;exitDx=0;exitDy=0;entryX=0.5;entryY=0;entryDx=0;entryDy=0;fontFamily=Verdana;fontSize=26;fontColor=none;strokeColor=#000000;strokeWidth=3;startArrow=none;" parent="1" source="37" target="31" edge="1">
                    <mxGeometry relative="1" as="geometry"/>
                </mxCell>
                <mxCell id="15" value="&lt;span style=&quot;color: rgb(0 , 0 , 0) ; font-size: 32px&quot;&gt;Standalone:&lt;br&gt;&amp;nbsp;- Macros&lt;/span&gt;&lt;br&gt;&lt;span style=&quot;color: rgb(0 , 0 , 0) ; font-size: 32px&quot;&gt;&amp;nbsp;- Includes&lt;/span&gt;&lt;br&gt;&lt;span style=&quot;color: rgb(0 , 0 , 0) ; font-size: 32px&quot;&gt;&amp;nbsp;- Binaries&lt;/span&gt;" style="text;html=1;align=left;verticalAlign=middle;resizable=0;points=[];autosize=1;strokeColor=none;fillColor=none;" parent="1" vertex="1">
                    <mxGeometry x="570" y="60" width="190" height="90" as="geometry"/>
                </mxCell>
                <mxCell id="58" style="edgeStyle=none;html=1;exitX=0.5;exitY=1;exitDx=0;exitDy=0;entryX=0;entryY=0;entryDx=0;entryDy=0;fontFamily=Verdana;fontSize=26;fontColor=none;strokeColor=#000000;strokeWidth=3;" parent="1" source="16" target="39" edge="1">
                    <mxGeometry relative="1" as="geometry"/>
                </mxCell>
                <mxCell id="63" style="edgeStyle=none;html=1;exitX=0.5;exitY=1;exitDx=0;exitDy=0;entryX=0;entryY=0;entryDx=0;entryDy=0;fontFamily=Verdana;fontSize=26;fontColor=none;strokeColor=#000000;strokeWidth=3;" parent="1" source="16" target="40" edge="1">
                    <mxGeometry relative="1" as="geometry"/>
                </mxCell>
                <mxCell id="16" value="" style="rounded=0;whiteSpace=wrap;html=1;imageHeight=29;sketch=1;glass=0;shadow=1;" parent="1" vertex="1">
                    <mxGeometry x="162.5" y="267" width="60" height="131" as="geometry"/>
                </mxCell>
                <mxCell id="73" style="edgeStyle=none;html=1;exitX=0.5;exitY=1;exitDx=0;exitDy=0;entryX=0.5;entryY=0;entryDx=0;entryDy=0;fontFamily=Verdana;fontSize=26;fontColor=none;strokeColor=#000000;strokeWidth=3;" parent="1" source="19" target="31" edge="1">
                    <mxGeometry relative="1" as="geometry"/>
                </mxCell>
                <mxCell id="70" style="edgeStyle=none;html=1;exitX=0.5;exitY=1;exitDx=0;exitDy=0;entryX=0.5;entryY=0;entryDx=0;entryDy=0;fontFamily=Verdana;fontSize=26;fontColor=none;strokeColor=#000000;strokeWidth=3;" parent="1" source="21" target="32" edge="1">
                    <mxGeometry relative="1" as="geometry"/>
                </mxCell>
                <mxCell id="82" style="edgeStyle=none;html=1;exitX=0.25;exitY=1;exitDx=0;exitDy=0;entryX=0.5;entryY=0;entryDx=0;entryDy=0;fontFamily=Verdana;fontSize=26;fontColor=none;strokeColor=#000000;strokeWidth=3;" parent="1" source="21" target="16" edge="1">
                    <mxGeometry relative="1" as="geometry"/>
                </mxCell>
                <mxCell id="75" style="edgeStyle=none;html=1;exitX=0.5;exitY=1;exitDx=0;exitDy=0;entryX=0.75;entryY=0;entryDx=0;entryDy=0;fontFamily=Verdana;fontSize=26;fontColor=none;strokeColor=#000000;strokeWidth=3;" parent="1" source="22" target="32" edge="1">
                    <mxGeometry relative="1" as="geometry"/>
                </mxCell>
                <mxCell id="78" style="edgeStyle=none;html=1;exitX=0.5;exitY=1;exitDx=0;exitDy=0;entryX=0.25;entryY=0;entryDx=0;entryDy=0;fontFamily=Verdana;fontSize=26;fontColor=none;strokeColor=#000000;strokeWidth=3;" parent="1" source="23" target="34" edge="1">
                    <mxGeometry relative="1" as="geometry"/>
                </mxCell>
                <mxCell id="71" style="edgeStyle=none;html=1;exitX=0.5;exitY=1;exitDx=0;exitDy=0;entryX=0.5;entryY=0;entryDx=0;entryDy=0;fontFamily=Verdana;fontSize=26;fontColor=none;strokeColor=#000000;strokeWidth=3;" parent="1" source="24" target="34" edge="1">
                    <mxGeometry relative="1" as="geometry"/>
                </mxCell>
                <mxCell id="72" style="edgeStyle=none;html=1;exitX=0.5;exitY=1;exitDx=0;exitDy=0;entryX=0.5;entryY=0;entryDx=0;entryDy=0;fontFamily=Verdana;fontSize=26;fontColor=none;strokeColor=#000000;strokeWidth=3;" parent="1" source="26" target="33" edge="1">
                    <mxGeometry relative="1" as="geometry"/>
                </mxCell>
                <mxCell id="79" style="edgeStyle=none;html=1;exitX=0.5;exitY=1;exitDx=0;exitDy=0;entryX=0.75;entryY=0;entryDx=0;entryDy=0;fontFamily=Verdana;fontSize=26;fontColor=none;strokeColor=#000000;strokeWidth=3;" parent="1" source="27" target="34" edge="1">
                    <mxGeometry relative="1" as="geometry"/>
                </mxCell>
                <mxCell id="59" style="edgeStyle=none;html=1;exitX=0.5;exitY=1;exitDx=0;exitDy=0;entryX=0.25;entryY=0;entryDx=0;entryDy=0;fontFamily=Verdana;fontSize=26;fontColor=none;strokeColor=#000000;strokeWidth=3;" parent="1" source="31" target="39" edge="1">
                    <mxGeometry relative="1" as="geometry"/>
                </mxCell>
                <mxCell id="64" style="edgeStyle=none;html=1;exitX=0.5;exitY=1;exitDx=0;exitDy=0;entryX=0.25;entryY=0;entryDx=0;entryDy=0;fontFamily=Verdana;fontSize=26;fontColor=none;strokeColor=#000000;strokeWidth=3;" parent="1" source="31" target="40" edge="1">
                    <mxGeometry relative="1" as="geometry"/>
                </mxCell>
                <mxCell id="31" value="" style="rounded=0;whiteSpace=wrap;html=1;imageHeight=29;glass=0;shadow=1;sketch=1;" parent="1" vertex="1">
                    <mxGeometry x="233.5" y="267" width="60" height="131" as="geometry"/>
                </mxCell>
                <mxCell id="60" style="edgeStyle=none;html=1;exitX=0.5;exitY=1;exitDx=0;exitDy=0;entryX=0.5;entryY=0;entryDx=0;entryDy=0;fontFamily=Verdana;fontSize=26;fontColor=none;strokeColor=#000000;strokeWidth=3;" parent="1" source="32" target="39" edge="1">
                    <mxGeometry relative="1" as="geometry"/>
                </mxCell>
                <mxCell id="65" style="edgeStyle=none;html=1;exitX=0.5;exitY=1;exitDx=0;exitDy=0;fontFamily=Verdana;fontSize=26;fontColor=none;strokeColor=#000000;strokeWidth=3;" parent="1" source="32" edge="1">
                    <mxGeometry relative="1" as="geometry">
                        <mxPoint x="390" y="520" as="targetPoint"/>
                    </mxGeometry>
                </mxCell>
                <mxCell id="32" value="" style="rounded=0;whiteSpace=wrap;html=1;imageHeight=29;glass=0;shadow=1;sketch=1;" parent="1" vertex="1">
                    <mxGeometry x="305.5" y="267" width="60" height="131" as="geometry"/>
                </mxCell>
                <mxCell id="61" style="edgeStyle=none;html=1;exitX=0.5;exitY=1;exitDx=0;exitDy=0;entryX=0.75;entryY=0;entryDx=0;entryDy=0;fontFamily=Verdana;fontSize=26;fontColor=none;strokeColor=#000000;strokeWidth=3;" parent="1" source="33" target="39" edge="1">
                    <mxGeometry relative="1" as="geometry"/>
                </mxCell>
                <mxCell id="66" style="edgeStyle=none;html=1;exitX=0.5;exitY=1;exitDx=0;exitDy=0;entryX=0.627;entryY=0;entryDx=0;entryDy=0;entryPerimeter=0;fontFamily=Verdana;fontSize=26;fontColor=none;strokeColor=#000000;strokeWidth=3;" parent="1" source="33" target="40" edge="1">
                    <mxGeometry relative="1" as="geometry"/>
                </mxCell>
                <mxCell id="33" value="" style="rounded=0;whiteSpace=wrap;html=1;imageHeight=29;glass=0;shadow=1;sketch=1;" parent="1" vertex="1">
                    <mxGeometry x="375.5" y="267" width="60" height="131" as="geometry"/>
                </mxCell>
                <mxCell id="62" style="edgeStyle=none;html=1;exitX=0.5;exitY=1;exitDx=0;exitDy=0;entryX=1;entryY=0;entryDx=0;entryDy=0;fontFamily=Verdana;fontSize=26;fontColor=none;strokeColor=#000000;strokeWidth=3;" parent="1" source="34" target="39" edge="1">
                    <mxGeometry relative="1" as="geometry"/>
                </mxCell>
                <mxCell id="67" style="edgeStyle=none;html=1;exitX=0.5;exitY=1;exitDx=0;exitDy=0;entryX=0.894;entryY=-0.012;entryDx=0;entryDy=0;fontFamily=Verdana;fontSize=26;fontColor=none;strokeColor=#000000;strokeWidth=3;entryPerimeter=0;" parent="1" source="34" target="40" edge="1">
                    <mxGeometry relative="1" as="geometry"/>
                </mxCell>
                <mxCell id="34" value="" style="rounded=0;whiteSpace=wrap;html=1;imageHeight=29;glass=0;shadow=1;sketch=1;" parent="1" vertex="1">
                    <mxGeometry x="446.5" y="267" width="60" height="131" as="geometry"/>
                </mxCell>
                <mxCell id="36" value="&lt;span style=&quot;color: rgb(0 , 0 , 0) ; font-size: 32px&quot;&gt;Self-Contained:&lt;br&gt;- Jobs&lt;/span&gt;&lt;br&gt;&lt;span style=&quot;color: rgb(0 , 0 , 0) ; font-size: 32px&quot;&gt;- Services&lt;/span&gt;&lt;br&gt;&lt;span style=&quot;color: rgb(0 , 0 , 0) ; font-size: 32px&quot;&gt;- Tests&lt;/span&gt;" style="text;html=1;align=left;verticalAlign=middle;resizable=0;points=[];autosize=1;strokeColor=none;fillColor=none;" parent="1" vertex="1">
                    <mxGeometry x="545" y="290" width="240" height="90" as="geometry"/>
                </mxCell>
                <mxCell id="38" value="&lt;font face=&quot;Courier New&quot; color=&quot;#000000&quot; size=&quot;1&quot;&gt;&lt;b style=&quot;background-color: rgb(230 , 230 , 230) ; font-size: 40px&quot;&gt;sasjs build&lt;/b&gt;&lt;/font&gt;" style="text;html=1;strokeColor=none;fillColor=none;align=center;verticalAlign=middle;whiteSpace=wrap;rounded=0;fontSize=32;" parent="1" vertex="1">
                    <mxGeometry x="180.5" y="440" width="295" height="30" as="geometry"/>
                </mxCell>
                <mxCell id="51" style="edgeStyle=none;html=1;exitX=0.5;exitY=1;exitDx=0;exitDy=0;entryX=0.5;entryY=0;entryDx=0;entryDy=0;entryPerimeter=0;fontFamily=Verdana;fontSize=26;fontColor=none;strokeColor=#000000;strokeWidth=3;" parent="1" source="39" target="43" edge="1">
                    <mxGeometry relative="1" as="geometry"/>
                </mxCell>
                <mxCell id="52" style="edgeStyle=none;html=1;exitX=0.5;exitY=1;exitDx=0;exitDy=0;fontFamily=Verdana;fontSize=26;fontColor=none;strokeColor=#000000;strokeWidth=3;entryX=0.145;entryY=0;entryDx=0;entryDy=4.35;entryPerimeter=0;" parent="1" source="39" target="47" edge="1">
                    <mxGeometry relative="1" as="geometry">
                        <mxPoint x="320" y="730" as="targetPoint"/>
                    </mxGeometry>
                </mxCell>
                <mxCell id="39" value="&lt;font face=&quot;Verdana&quot; style=&quot;font-size: 26px&quot;&gt;.sas&lt;/font&gt;" style="whiteSpace=wrap;html=1;aspect=fixed;rounded=0;shadow=0;glass=0;sketch=0;fontFamily=Courier New;fontSize=36;fontColor=#000000;fillColor=none;strokeColor=#000000;strokeWidth=5;" parent="1" vertex="1">
                    <mxGeometry x="223.5" y="520" width="80" height="80" as="geometry"/>
                </mxCell>
                <mxCell id="53" style="edgeStyle=none;html=1;exitX=0.5;exitY=1;exitDx=0;exitDy=0;entryX=0.855;entryY=0;entryDx=0;entryDy=4.35;entryPerimeter=0;fontFamily=Verdana;fontSize=26;fontColor=none;strokeColor=#000000;strokeWidth=3;" parent="1" source="40" target="47" edge="1">
                    <mxGeometry relative="1" as="geometry"/>
                </mxCell>
                <mxCell id="54" style="edgeStyle=none;html=1;exitX=0.5;exitY=1;exitDx=0;exitDy=0;entryX=0.855;entryY=0;entryDx=0;entryDy=4.35;entryPerimeter=0;fontFamily=Verdana;fontSize=26;fontColor=none;strokeColor=#000000;strokeWidth=3;startArrow=none;" parent="1" source="40" target="43" edge="1">
                    <mxGeometry relative="1" as="geometry"/>
                </mxCell>
                <mxCell id="55" style="edgeStyle=none;html=1;exitX=0.5;exitY=1;exitDx=0;exitDy=0;entryX=0.5;entryY=0;entryDx=0;entryDy=0;entryPerimeter=0;fontFamily=Verdana;fontSize=26;fontColor=none;strokeColor=#000000;strokeWidth=3;" parent="1" source="40" target="46" edge="1">
                    <mxGeometry relative="1" as="geometry"/>
                </mxCell>
                <mxCell id="40" value="&lt;font face=&quot;Verdana&quot; style=&quot;font-size: 26px&quot;&gt;.json&lt;/font&gt;" style="whiteSpace=wrap;html=1;aspect=fixed;rounded=0;shadow=0;glass=0;sketch=0;fontFamily=Courier New;fontSize=36;fontColor=#000000;fillColor=none;strokeColor=#000000;strokeWidth=5;" parent="1" vertex="1">
                    <mxGeometry x="355.5" y="520" width="80" height="80" as="geometry"/>
                </mxCell>
                <mxCell id="43" value="SAS 9&lt;br&gt;EBI" style="shape=cylinder3;whiteSpace=wrap;html=1;boundedLbl=1;backgroundOutline=1;size=15;rounded=0;shadow=0;glass=0;labelBackgroundColor=none;sketch=0;fontFamily=Verdana;fontSize=26;fontColor=none;strokeColor=#000000;strokeWidth=5;fillColor=none;" parent="1" vertex="1">
                    <mxGeometry x="128" y="717" width="120" height="130" as="geometry"/>
                </mxCell>
                <mxCell id="46" value="SASJS&lt;br&gt;SERVER" style="shape=cylinder3;whiteSpace=wrap;html=1;boundedLbl=1;backgroundOutline=1;size=15;rounded=0;shadow=0;glass=0;labelBackgroundColor=none;sketch=0;fontFamily=Verdana;fontSize=26;fontColor=none;strokeColor=#000000;strokeWidth=5;fillColor=none;" parent="1" vertex="1">
                    <mxGeometry x="435.5" y="717" width="120" height="130" as="geometry"/>
                </mxCell>
                <mxCell id="47" value="SAS&lt;br&gt;VIYA" style="shape=cylinder3;whiteSpace=wrap;html=1;boundedLbl=1;backgroundOutline=1;size=15;rounded=0;shadow=0;glass=0;labelBackgroundColor=none;sketch=0;fontFamily=Verdana;fontSize=26;fontColor=none;strokeColor=#000000;strokeWidth=5;fillColor=none;" parent="1" vertex="1">
                    <mxGeometry x="280" y="717" width="120" height="130" as="geometry"/>
                </mxCell>
                <mxCell id="50" value="&lt;font color=&quot;#000000&quot;&gt;&lt;span style=&quot;font-size: 32px&quot;&gt;Single Deploy File:&lt;br&gt;&amp;nbsp;- Full Backend&lt;br&gt;&amp;nbsp;- Optional Frontend&lt;br&gt;&lt;/span&gt;&lt;/font&gt;&amp;nbsp;-" style="text;html=1;align=left;verticalAlign=middle;resizable=0;points=[];autosize=1;strokeColor=none;fillColor=none;" parent="1" vertex="1">
                    <mxGeometry x="485" y="530" width="300" height="80" as="geometry"/>
                </mxCell>
                <mxCell id="37" value="&lt;font face=&quot;Courier New&quot; color=&quot;#000000&quot; size=&quot;1&quot;&gt;&lt;b style=&quot;background-color: rgb(230 , 230 , 230) ; font-size: 40px&quot;&gt;sasjs compile&lt;/b&gt;&lt;/font&gt;" style="text;html=1;strokeColor=none;fillColor=none;align=center;verticalAlign=middle;whiteSpace=wrap;rounded=0;fontSize=32;" parent="1" vertex="1">
                    <mxGeometry x="169" y="190" width="322" height="30" as="geometry"/>
                </mxCell>
                <mxCell id="42" value="&lt;font face=&quot;Courier New&quot; color=&quot;#000000&quot; size=&quot;1&quot;&gt;&lt;b style=&quot;background-color: rgb(230 , 230 , 230) ; font-size: 40px&quot;&gt;sasjs deploy&lt;/b&gt;&lt;/font&gt;" style="text;html=1;strokeColor=none;fillColor=none;align=center;verticalAlign=middle;whiteSpace=wrap;rounded=0;fontSize=32;" parent="1" vertex="1">
                    <mxGeometry x="192.5" y="640" width="295" height="30" as="geometry"/>
                </mxCell>
                <mxCell id="3" value="" style="rounded=0;whiteSpace=wrap;html=1;fillColor=#FFFFFF;strokeColor=#000000;strokeWidth=3;shadow=1;" parent="1" vertex="1">
                    <mxGeometry x="160" y="100" width="40" height="60" as="geometry"/>
                </mxCell>
                <mxCell id="4" value="" style="rounded=0;whiteSpace=wrap;html=1;fillColor=#FFFFFF;strokeColor=#000000;strokeWidth=3;shadow=1;" parent="1" vertex="1">
                    <mxGeometry x="210" y="100" width="40" height="60" as="geometry"/>
                </mxCell>
                <mxCell id="8" value="" style="rounded=0;whiteSpace=wrap;html=1;fillColor=#FFFFFF;strokeColor=#000000;strokeWidth=3;shadow=1;" parent="1" vertex="1">
                    <mxGeometry x="260" y="100" width="40" height="60" as="geometry"/>
                </mxCell>
                <mxCell id="9" value="" style="rounded=0;whiteSpace=wrap;html=1;fillColor=#FFFFFF;strokeColor=#000000;strokeWidth=3;shadow=1;" parent="1" vertex="1">
                    <mxGeometry x="310" y="100" width="40" height="60" as="geometry"/>
                </mxCell>
                <mxCell id="10" value="" style="rounded=0;whiteSpace=wrap;html=1;fillColor=#FFFFFF;strokeColor=#000000;strokeWidth=3;shadow=1;" parent="1" vertex="1">
                    <mxGeometry x="360" y="100" width="40" height="60" as="geometry"/>
                </mxCell>
                <mxCell id="11" value="" style="rounded=0;whiteSpace=wrap;html=1;fillColor=#FFFFFF;strokeColor=#000000;strokeWidth=3;shadow=1;" parent="1" vertex="1">
                    <mxGeometry x="414" y="100" width="40" height="60" as="geometry"/>
                </mxCell>
                <mxCell id="12" value="" style="rounded=0;whiteSpace=wrap;html=1;fillColor=#FFFFFF;strokeColor=#000000;strokeWidth=3;shadow=1;" parent="1" vertex="1">
                    <mxGeometry x="464" y="100" width="40" height="60" as="geometry"/>
                </mxCell>
                <mxCell id="13" value="" style="rounded=0;whiteSpace=wrap;html=1;fillColor=#FFFFFF;strokeColor=#000000;strokeWidth=3;shadow=1;" parent="1" vertex="1">
                    <mxGeometry x="514" y="100" width="40" height="60" as="geometry"/>
                </mxCell>
                <mxCell id="19" value="" style="rounded=0;whiteSpace=wrap;html=1;fillColor=#FFFFFF;strokeColor=#000000;strokeWidth=3;shadow=1;backgroundOutline=0;" parent="1" vertex="1">
                    <mxGeometry x="108" y="30" width="40" height="60" as="geometry"/>
                </mxCell>
                <mxCell id="20" value="" style="rounded=0;whiteSpace=wrap;html=1;fillColor=#FFFFFF;strokeColor=#000000;strokeWidth=3;shadow=1;" parent="1" vertex="1">
                    <mxGeometry x="158" y="30" width="40" height="60" as="geometry"/>
                </mxCell>
                <mxCell id="21" value="" style="rounded=0;whiteSpace=wrap;html=1;fillColor=#FFFFFF;strokeColor=#000000;strokeWidth=3;shadow=1;" parent="1" vertex="1">
                    <mxGeometry x="208" y="30" width="40" height="60" as="geometry"/>
                </mxCell>
                <mxCell id="22" value="" style="rounded=0;whiteSpace=wrap;html=1;fillColor=#FFFFFF;strokeColor=#000000;strokeWidth=3;shadow=1;" parent="1" vertex="1">
                    <mxGeometry x="258" y="30" width="40" height="60" as="geometry"/>
                </mxCell>
                <mxCell id="23" value="" style="rounded=0;whiteSpace=wrap;html=1;fillColor=#FFFFFF;strokeColor=#000000;strokeWidth=3;shadow=1;" parent="1" vertex="1">
                    <mxGeometry x="308" y="30" width="40" height="60" as="geometry"/>
                </mxCell>
                <mxCell id="24" value="" style="rounded=0;whiteSpace=wrap;html=1;fillColor=#FFFFFF;strokeColor=#000000;strokeWidth=3;shadow=1;" parent="1" vertex="1">
                    <mxGeometry x="358" y="30" width="40" height="60" as="geometry"/>
                </mxCell>
                <mxCell id="25" value="" style="rounded=0;whiteSpace=wrap;html=1;fillColor=#FFFFFF;strokeColor=#000000;strokeWidth=3;shadow=1;" parent="1" vertex="1">
                    <mxGeometry x="412" y="30" width="40" height="60" as="geometry"/>
                </mxCell>
                <mxCell id="26" value="" style="rounded=0;whiteSpace=wrap;html=1;fillColor=#FFFFFF;strokeColor=#000000;strokeWidth=3;shadow=1;" parent="1" vertex="1">
                    <mxGeometry x="462" y="30" width="40" height="60" as="geometry"/>
                </mxCell>
                <mxCell id="27" value="" style="rounded=0;whiteSpace=wrap;html=1;fillColor=#FFFFFF;strokeColor=#000000;strokeWidth=3;shadow=1;" parent="1" vertex="1">
                    <mxGeometry x="512" y="30" width="40" height="60" as="geometry"/>
                </mxCell>
                <mxCell id="2" value="" style="rounded=0;whiteSpace=wrap;html=1;fillColor=#FFFFFF;strokeColor=#000000;strokeWidth=3;shadow=1;" parent="1" vertex="1">
                    <mxGeometry x="110" y="100" width="40" height="60" as="geometry"/>
                </mxCell>
                <mxCell id="86" value="" style="verticalLabelPosition=bottom;sketch=0;aspect=fixed;html=1;verticalAlign=top;strokeColor=none;align=center;outlineConnect=0;shape=mxgraph.citrix.process;rounded=0;shadow=1;glass=0;labelBackgroundColor=none;fontFamily=Verdana;fontSize=40;fontColor=none;fillColor=#FFFFFF;" vertex="1" parent="1">
                    <mxGeometry x="166.5" y="301.5" width="52" height="62" as="geometry"/>
                </mxCell>
                <mxCell id="87" value="" style="verticalLabelPosition=bottom;sketch=0;aspect=fixed;html=1;verticalAlign=top;strokeColor=none;align=center;outlineConnect=0;shape=mxgraph.citrix.process;rounded=0;shadow=1;glass=0;labelBackgroundColor=none;fontFamily=Verdana;fontSize=40;fontColor=none;fillColor=#FFFFFF;" vertex="1" parent="1">
                    <mxGeometry x="237.5" y="304" width="52" height="62" as="geometry"/>
                </mxCell>
                <mxCell id="88" value="" style="verticalLabelPosition=bottom;sketch=0;aspect=fixed;html=1;verticalAlign=top;strokeColor=none;align=center;outlineConnect=0;shape=mxgraph.citrix.process;rounded=0;shadow=1;glass=0;labelBackgroundColor=none;fontFamily=Verdana;fontSize=40;fontColor=none;fillColor=#FFFFFF;" vertex="1" parent="1">
                    <mxGeometry x="310" y="304" width="52" height="62" as="geometry"/>
                </mxCell>
                <mxCell id="89" value="" style="verticalLabelPosition=bottom;sketch=0;aspect=fixed;html=1;verticalAlign=top;strokeColor=none;align=center;outlineConnect=0;shape=mxgraph.citrix.process;rounded=0;shadow=1;glass=0;labelBackgroundColor=none;fontFamily=Verdana;fontSize=40;fontColor=none;fillColor=#FFFFFF;" vertex="1" parent="1">
                    <mxGeometry x="379.5" y="304" width="52" height="62" as="geometry"/>
                </mxCell>
                <mxCell id="90" value="" style="verticalLabelPosition=bottom;sketch=0;aspect=fixed;html=1;verticalAlign=top;strokeColor=none;align=center;outlineConnect=0;shape=mxgraph.citrix.process;rounded=0;shadow=1;glass=0;labelBackgroundColor=none;fontFamily=Verdana;fontSize=40;fontColor=none;fillColor=#FFFFFF;" vertex="1" parent="1">
                    <mxGeometry x="450" y="304" width="52" height="62" as="geometry"/>
                </mxCell>
                <mxCell id="92" value="" style="sketch=0;pointerEvents=1;shadow=0;dashed=0;html=1;strokeColor=none;labelPosition=center;verticalLabelPosition=bottom;verticalAlign=top;align=center;fillColor=#505050;shape=mxgraph.mscae.intune.policy;rounded=0;glass=0;labelBackgroundColor=none;fontFamily=Verdana;fontSize=40;fontColor=none;" vertex="1" parent="1">
                    <mxGeometry x="108" y="39" width="43" height="43" as="geometry"/>
                </mxCell>
                <mxCell id="93" value="" style="sketch=0;pointerEvents=1;shadow=0;dashed=0;html=1;strokeColor=none;labelPosition=center;verticalLabelPosition=bottom;verticalAlign=top;align=center;fillColor=#505050;shape=mxgraph.mscae.intune.policy;rounded=0;glass=0;labelBackgroundColor=none;fontFamily=Verdana;fontSize=40;fontColor=none;" vertex="1" parent="1">
                    <mxGeometry x="158" y="38.5" width="43" height="43" as="geometry"/>
                </mxCell>
                <mxCell id="94" value="" style="sketch=0;pointerEvents=1;shadow=0;dashed=0;html=1;strokeColor=none;labelPosition=center;verticalLabelPosition=bottom;verticalAlign=top;align=center;fillColor=#505050;shape=mxgraph.mscae.intune.policy;rounded=0;glass=0;labelBackgroundColor=none;fontFamily=Verdana;fontSize=40;fontColor=none;" vertex="1" parent="1">
                    <mxGeometry x="206.5" y="39" width="43" height="43" as="geometry"/>
                </mxCell>
                <mxCell id="95" value="" style="sketch=0;pointerEvents=1;shadow=0;dashed=0;html=1;strokeColor=none;labelPosition=center;verticalLabelPosition=bottom;verticalAlign=top;align=center;fillColor=#505050;shape=mxgraph.mscae.intune.policy;rounded=0;glass=0;labelBackgroundColor=none;fontFamily=Verdana;fontSize=40;fontColor=none;" vertex="1" parent="1">
                    <mxGeometry x="256.5" y="39.5" width="43" height="43" as="geometry"/>
                </mxCell>
                <mxCell id="96" value="" style="sketch=0;pointerEvents=1;shadow=0;dashed=0;html=1;strokeColor=none;labelPosition=center;verticalLabelPosition=bottom;verticalAlign=top;align=center;fillColor=#505050;shape=mxgraph.mscae.intune.policy;rounded=0;glass=0;labelBackgroundColor=none;fontFamily=Verdana;fontSize=40;fontColor=none;" vertex="1" parent="1">
                    <mxGeometry x="306.5" y="39" width="43" height="43" as="geometry"/>
                </mxCell>
                <mxCell id="97" value="" style="sketch=0;pointerEvents=1;shadow=0;dashed=0;html=1;strokeColor=none;labelPosition=center;verticalLabelPosition=bottom;verticalAlign=top;align=center;fillColor=#505050;shape=mxgraph.mscae.intune.policy;rounded=0;glass=0;labelBackgroundColor=none;fontFamily=Verdana;fontSize=40;fontColor=none;" vertex="1" parent="1">
                    <mxGeometry x="355" y="39.5" width="43" height="43" as="geometry"/>
                </mxCell>
                <mxCell id="98" value="" style="sketch=0;pointerEvents=1;shadow=0;dashed=0;html=1;strokeColor=none;labelPosition=center;verticalLabelPosition=bottom;verticalAlign=top;align=center;fillColor=#505050;shape=mxgraph.mscae.intune.policy;rounded=0;glass=0;labelBackgroundColor=none;fontFamily=Verdana;fontSize=40;fontColor=none;" vertex="1" parent="1">
                    <mxGeometry x="413.25" y="38.5" width="43" height="43" as="geometry"/>
                </mxCell>
                <mxCell id="99" value="" style="sketch=0;pointerEvents=1;shadow=0;dashed=0;html=1;strokeColor=none;labelPosition=center;verticalLabelPosition=bottom;verticalAlign=top;align=center;fillColor=#505050;shape=mxgraph.mscae.intune.policy;rounded=0;glass=0;labelBackgroundColor=none;fontFamily=Verdana;fontSize=40;fontColor=none;" vertex="1" parent="1">
                    <mxGeometry x="463.25" y="38" width="43" height="43" as="geometry"/>
                </mxCell>
                <mxCell id="100" value="" style="sketch=0;pointerEvents=1;shadow=0;dashed=0;html=1;strokeColor=none;labelPosition=center;verticalLabelPosition=bottom;verticalAlign=top;align=center;fillColor=#505050;shape=mxgraph.mscae.intune.policy;rounded=0;glass=0;labelBackgroundColor=none;fontFamily=Verdana;fontSize=40;fontColor=none;" vertex="1" parent="1">
                    <mxGeometry x="511.75" y="38.5" width="43" height="43" as="geometry"/>
                </mxCell>
                <mxCell id="101" value="" style="sketch=0;pointerEvents=1;shadow=0;dashed=0;html=1;strokeColor=none;labelPosition=center;verticalLabelPosition=bottom;verticalAlign=top;align=center;fillColor=#505050;shape=mxgraph.mscae.intune.policy;rounded=0;glass=0;labelBackgroundColor=none;fontFamily=Verdana;fontSize=40;fontColor=none;" vertex="1" parent="1">
                    <mxGeometry x="108.5" y="108.75" width="43" height="43" as="geometry"/>
                </mxCell>
                <mxCell id="102" value="" style="sketch=0;pointerEvents=1;shadow=0;dashed=0;html=1;strokeColor=none;labelPosition=center;verticalLabelPosition=bottom;verticalAlign=top;align=center;fillColor=#505050;shape=mxgraph.mscae.intune.policy;rounded=0;glass=0;labelBackgroundColor=none;fontFamily=Verdana;fontSize=40;fontColor=none;" vertex="1" parent="1">
                    <mxGeometry x="158.5" y="108.25" width="43" height="43" as="geometry"/>
                </mxCell>
                <mxCell id="103" value="" style="sketch=0;pointerEvents=1;shadow=0;dashed=0;html=1;strokeColor=none;labelPosition=center;verticalLabelPosition=bottom;verticalAlign=top;align=center;fillColor=#505050;shape=mxgraph.mscae.intune.policy;rounded=0;glass=0;labelBackgroundColor=none;fontFamily=Verdana;fontSize=40;fontColor=none;" vertex="1" parent="1">
                    <mxGeometry x="207" y="108.75" width="43" height="43" as="geometry"/>
                </mxCell>
                <mxCell id="104" value="" style="sketch=0;pointerEvents=1;shadow=0;dashed=0;html=1;strokeColor=none;labelPosition=center;verticalLabelPosition=bottom;verticalAlign=top;align=center;fillColor=#505050;shape=mxgraph.mscae.intune.policy;rounded=0;glass=0;labelBackgroundColor=none;fontFamily=Verdana;fontSize=40;fontColor=none;" vertex="1" parent="1">
                    <mxGeometry x="260" y="107" width="43" height="43" as="geometry"/>
                </mxCell>
                <mxCell id="105" value="" style="sketch=0;pointerEvents=1;shadow=0;dashed=0;html=1;strokeColor=none;labelPosition=center;verticalLabelPosition=bottom;verticalAlign=top;align=center;fillColor=#505050;shape=mxgraph.mscae.intune.policy;rounded=0;glass=0;labelBackgroundColor=none;fontFamily=Verdana;fontSize=40;fontColor=none;" vertex="1" parent="1">
                    <mxGeometry x="310" y="106.5" width="43" height="43" as="geometry"/>
                </mxCell>
                <mxCell id="106" value="" style="sketch=0;pointerEvents=1;shadow=0;dashed=0;html=1;strokeColor=none;labelPosition=center;verticalLabelPosition=bottom;verticalAlign=top;align=center;fillColor=#505050;shape=mxgraph.mscae.intune.policy;rounded=0;glass=0;labelBackgroundColor=none;fontFamily=Verdana;fontSize=40;fontColor=none;" vertex="1" parent="1">
                    <mxGeometry x="358.5" y="107" width="43" height="43" as="geometry"/>
                </mxCell>
                <mxCell id="107" value="" style="sketch=0;pointerEvents=1;shadow=0;dashed=0;html=1;strokeColor=none;labelPosition=center;verticalLabelPosition=bottom;verticalAlign=top;align=center;fillColor=#505050;shape=mxgraph.mscae.intune.policy;rounded=0;glass=0;labelBackgroundColor=none;fontFamily=Verdana;fontSize=40;fontColor=none;" vertex="1" parent="1">
                    <mxGeometry x="414" y="107.5" width="43" height="43" as="geometry"/>
                </mxCell>
                <mxCell id="108" value="" style="sketch=0;pointerEvents=1;shadow=0;dashed=0;html=1;strokeColor=none;labelPosition=center;verticalLabelPosition=bottom;verticalAlign=top;align=center;fillColor=#505050;shape=mxgraph.mscae.intune.policy;rounded=0;glass=0;labelBackgroundColor=none;fontFamily=Verdana;fontSize=40;fontColor=none;" vertex="1" parent="1">
                    <mxGeometry x="464" y="107" width="43" height="43" as="geometry"/>
                </mxCell>
                <mxCell id="109" value="" style="sketch=0;pointerEvents=1;shadow=0;dashed=0;html=1;strokeColor=none;labelPosition=center;verticalLabelPosition=bottom;verticalAlign=top;align=center;fillColor=#505050;shape=mxgraph.mscae.intune.policy;rounded=0;glass=0;labelBackgroundColor=none;fontFamily=Verdana;fontSize=40;fontColor=none;" vertex="1" parent="1">
                    <mxGeometry x="512.5" y="107.5" width="43" height="43" as="geometry"/>
                </mxCell>
            </root>
        </mxGraphModel>
    </diagram>
</mxfile>
